<svg width="652" height="251" viewBox="0 0 652 251" fill="none" xmlns="http://www.w3.org/2000/svg">
<path d="M385.591 102.229C385.591 102.229 385.633 102.186 385.718 102.102C385.803 102.017 385.867 101.975 385.909 101.975C386.079 101.975 386.228 102.017 386.355 102.102C386.525 102.186 386.61 102.292 386.61 102.42V102.547C386.61 102.589 386.589 102.632 386.546 102.674C386.546 102.716 386.546 102.737 386.546 102.737C386.504 102.822 386.44 102.949 386.355 103.119C386.313 103.246 386.27 103.373 386.228 103.5C386.185 103.585 386.122 103.67 386.037 103.755C385.527 104.475 384.614 105.45 383.297 106.679C383.255 106.722 383.17 106.827 383.043 106.997C382.915 107.167 382.83 107.294 382.788 107.378C380.962 109.964 377.649 114.711 372.85 121.619C368.094 128.528 364.442 133.741 361.894 137.259C372.723 139.039 381.705 140.077 388.84 140.374C389.137 140.374 389.583 140.374 390.177 140.374C390.772 140.374 391.197 140.374 391.451 140.374C395.358 133.72 398.034 129.079 399.478 126.451C403.512 119.246 406.803 112.867 409.352 107.315C410.158 105.492 411.114 103.14 412.218 100.258C412.388 99.4951 412.685 99.1984 413.11 99.368C413.45 99.5375 413.513 99.8978 413.301 100.449C413.301 100.534 413.28 100.597 413.237 100.639C412.685 102.335 411.709 104.708 410.307 107.76C408.566 111.532 406.018 116.491 402.663 122.636C399.308 128.782 396.102 134.398 393.044 139.484C393.001 139.611 392.916 139.781 392.789 139.993C392.662 140.162 392.577 140.289 392.534 140.374C403.958 140.374 412.218 138.551 417.314 134.907C417.654 134.652 417.93 134.716 418.142 135.097C418.312 135.394 418.249 135.648 417.951 135.86C412.515 139.717 403.916 141.582 392.152 141.455C387.438 149.211 383.297 155.441 379.73 160.146C377.777 162.731 376.142 164.511 374.825 165.486V165.55C374.188 165.846 373.594 165.995 373.041 165.995C371.767 165.995 370.345 165.38 368.773 164.151C367.882 163.473 366.777 162.456 365.461 161.099C362.658 158.133 359.091 153.534 354.759 147.304C354.419 147.77 353.336 149.169 351.51 151.5C349.684 153.873 348.261 155.632 347.242 156.776C347.115 156.946 346.924 156.988 346.669 156.904C346.457 156.861 346.308 156.734 346.223 156.522C346.18 156.31 346.244 156.098 346.414 155.886C347.306 155.039 348.474 153.767 349.918 152.072C351.149 150.546 352.593 148.681 354.249 146.477C353.655 145.63 352.805 144.422 351.701 142.853C350.64 141.285 349.896 140.183 349.472 139.547C348.283 137.852 347.433 136.708 346.924 136.114C346.881 135.987 346.754 135.86 346.541 135.733C346.372 135.606 346.287 135.457 346.287 135.288C346.287 135.203 346.308 135.118 346.35 135.034C346.393 134.949 346.435 134.885 346.478 134.843C346.563 134.758 346.648 134.716 346.733 134.716C346.733 134.673 346.754 134.652 346.796 134.652H346.987C347.157 134.652 347.561 134.673 348.198 134.716L350.3 135.097C350.894 135.182 352.487 135.479 355.078 135.987C357.668 136.496 359.685 136.856 361.129 137.068C362.828 134.652 369.262 125.391 380.431 109.286C376.736 112.422 372.022 115.961 366.289 119.903C363.529 121.852 360.959 123.548 358.581 124.989C355.693 126.769 353.379 128.04 351.638 128.803C350.788 129.1 350.215 129.27 349.918 129.312H349.09C348.622 129.142 348.283 129.015 348.07 128.93C347.9 128.803 347.688 128.591 347.433 128.295C347.178 127.998 347.051 127.638 347.051 127.214C347.051 127.002 347.072 126.811 347.115 126.642C347.157 126.43 347.221 126.218 347.306 126.006C347.391 125.794 347.454 125.625 347.497 125.497C347.582 125.37 347.688 125.201 347.815 124.989C347.985 124.777 348.092 124.629 348.134 124.544C348.176 124.459 348.283 124.311 348.452 124.099C348.622 123.887 348.707 123.781 348.707 123.781C348.92 123.527 349.281 123.103 349.79 122.509C350.3 121.874 350.576 121.535 350.618 121.492C350.788 121.28 350.979 121.217 351.192 121.301C351.404 121.344 351.553 121.471 351.638 121.683C351.723 121.852 351.701 122.022 351.574 122.191C349.875 124.268 348.835 125.646 348.452 126.324C348.283 126.705 348.198 127.023 348.198 127.277C348.198 127.744 348.58 128.083 349.344 128.295H349.663C349.96 128.252 350.47 128.104 351.192 127.85C352.763 127.172 355.014 125.942 357.944 124.162C362.955 121.068 368.285 117.381 373.933 113.1C377.501 110.43 380.325 108.141 382.406 106.234C382.66 106.065 383.106 105.492 383.743 104.518C384.465 103.458 385.081 102.695 385.591 102.229ZM349.981 139.102C350.321 139.569 351.022 140.586 352.084 142.154C353.145 143.722 353.973 144.951 354.568 145.841C355.842 144.146 357.732 141.54 360.237 138.022C359.6 137.895 358.05 137.598 355.587 137.132C353.124 136.665 351.234 136.305 349.918 136.051C348.644 135.839 347.922 135.712 347.752 135.669C347.752 135.669 347.709 135.669 347.624 135.669C347.539 135.669 347.476 135.669 347.433 135.669C348.07 136.39 348.92 137.534 349.981 139.102ZM373.678 164.914C373.721 164.914 373.827 164.85 373.997 164.723C374.039 164.723 374.209 164.617 374.507 164.405C375.568 163.515 376.97 161.905 378.711 159.574C382.321 154.827 386.334 148.745 390.751 141.328C386.546 141.328 381.047 140.904 374.252 140.056C370.217 139.547 365.864 138.891 361.193 138.085C359.664 140.247 357.626 143.044 355.078 146.477C359.367 152.75 362.955 157.412 365.843 160.464C367.967 162.583 369.644 163.939 370.876 164.533C371.598 164.914 372.235 165.105 372.787 165.105C373.169 165.105 373.466 165.041 373.678 164.914Z" fill="#2B2C30"/>
<path d="M426.422 135.352L426.55 135.542H426.486C425.891 135.712 424.978 136.093 423.747 136.687C421.114 137.958 419.266 138.763 418.205 139.102C417.44 139.357 416.803 139.505 416.294 139.547C415.487 139.547 414.956 139.357 414.701 138.975C414.149 138.212 414.276 137.428 415.083 136.623C415.89 135.775 416.782 135.161 417.759 134.779C419.118 134.186 420.349 133.889 421.453 133.889C421.666 133.889 421.814 133.91 421.899 133.953H422.027C422.197 133.995 422.303 134.101 422.345 134.271C422.43 134.398 422.409 134.546 422.282 134.716C422.197 134.843 422.069 134.907 421.899 134.907H421.453C420.731 134.907 419.649 135.224 418.205 135.86C417.27 136.284 416.548 136.75 416.039 137.259C415.699 137.64 415.55 137.958 415.593 138.212C415.593 138.509 415.826 138.615 416.294 138.53C417.1 138.53 418.268 138.234 419.797 137.64C420.477 137.344 421.453 136.899 422.727 136.305C424.001 135.712 424.872 135.33 425.339 135.161C425.339 135.118 425.467 135.055 425.721 134.97C425.976 134.843 426.189 134.758 426.358 134.716C426.358 134.716 426.38 134.716 426.422 134.716C426.465 134.716 426.507 134.716 426.55 134.716H426.741C426.783 134.716 426.847 134.737 426.932 134.779C426.974 134.779 426.995 134.779 426.995 134.779C426.995 134.779 427.017 134.779 427.059 134.779C427.187 134.949 427.25 135.118 427.25 135.288C427.25 135.585 427.187 135.881 427.059 136.178C426.974 136.475 426.847 136.814 426.677 137.195C426.507 137.534 426.401 137.767 426.358 137.895C425.721 139.293 425.403 140.204 425.403 140.628C425.403 140.671 425.403 140.734 425.403 140.819C425.445 140.861 425.467 140.883 425.467 140.883H425.53L425.658 140.946H425.976C426.061 140.946 426.146 140.946 426.231 140.946C426.316 140.904 426.38 140.883 426.422 140.883C427.611 140.755 429.098 140.332 430.881 139.611C434.109 138.467 437.103 136.899 439.863 134.907C440.076 134.779 440.267 134.779 440.437 134.907C440.649 134.991 440.755 135.14 440.755 135.352C440.798 135.521 440.734 135.691 440.564 135.86C436.105 138.785 431.773 140.692 427.569 141.582C427.356 141.624 427.017 141.688 426.55 141.773C426.507 141.773 426.422 141.773 426.295 141.773C426.167 141.773 426.082 141.773 426.04 141.773H425.785C425.743 141.773 425.679 141.773 425.594 141.773C425.509 141.773 425.445 141.773 425.403 141.773L425.339 141.709H425.212C425.169 141.709 425.127 141.709 425.084 141.709C424.702 141.455 424.511 141.094 424.511 140.628C424.511 139.823 424.787 138.869 425.339 137.767C425.934 136.665 426.295 135.86 426.422 135.352Z" fill="#2B2C30"/>
<path d="M448.623 125.307C448.326 125.307 448.05 125.243 447.795 125.116C447.54 124.989 447.413 124.819 447.413 124.607C447.37 124.565 447.392 124.501 447.477 124.417C447.477 124.332 447.498 124.247 447.54 124.162V123.972C447.583 123.76 447.689 123.633 447.859 123.59C448.029 123.505 448.177 123.527 448.305 123.654C448.475 123.738 448.538 123.887 448.496 124.099V124.162C448.453 124.162 448.432 124.183 448.432 124.226C448.432 124.311 448.432 124.353 448.432 124.353C448.432 124.395 448.496 124.417 448.623 124.417C448.963 124.417 449.345 124.374 449.77 124.289C450.195 124.205 450.534 124.12 450.789 124.035C451.086 123.908 451.447 123.76 451.872 123.59C452.339 123.421 452.658 123.315 452.828 123.272C453.889 122.933 454.739 122.615 455.376 122.319C455.588 122.234 455.779 122.276 455.949 122.446C456.119 122.573 456.183 122.742 456.14 122.954C456.14 123.166 456.013 123.315 455.758 123.399C455.758 123.442 455.715 123.463 455.631 123.463C454.824 123.463 453.634 123.76 452.063 124.353C450.492 124.946 449.345 125.264 448.623 125.307ZM446.84 132.3C446.84 132.342 446.861 132.427 446.903 132.554C446.988 132.639 447.031 132.703 447.031 132.745C447.031 132.745 447.031 132.936 447.031 133.317C446.988 133.741 446.733 134.631 446.266 135.987C446.266 136.072 446.139 136.411 445.884 137.004C445.672 137.598 445.459 138.17 445.247 138.721C445.077 139.272 444.865 139.929 444.61 140.692C444.398 141.455 444.249 142.154 444.164 142.79C444.079 143.383 444.037 143.955 444.037 144.506C444.079 145.057 444.228 145.481 444.483 145.778C444.78 146.032 445.205 146.117 445.757 146.032C446.691 145.99 448.008 145.587 449.706 144.824C454.08 142.832 459.495 139.526 465.95 134.907C466.12 134.779 466.311 134.779 466.524 134.907C466.736 134.991 466.842 135.14 466.842 135.352C466.885 135.521 466.8 135.691 466.587 135.86L464.74 137.132C458.879 141.158 453.996 144.04 450.088 145.778C448.305 146.583 446.903 147.007 445.884 147.049C445.375 147.049 444.929 146.986 444.546 146.859C444.207 146.731 443.952 146.52 443.782 146.223C443.612 145.926 443.463 145.651 443.336 145.396C443.251 145.1 443.209 144.697 443.209 144.188C443.251 143.68 443.272 143.277 443.272 142.981C443.315 142.684 443.421 142.26 443.591 141.709C443.761 141.116 443.867 140.734 443.909 140.565C443.952 140.353 444.058 139.971 444.228 139.42C444.355 138.997 444.525 138.488 444.737 137.895C444.95 137.301 445.12 136.793 445.247 136.369C445.417 135.903 445.587 135.394 445.757 134.843C445.927 134.25 446.054 133.699 446.139 133.19V132.936C445.757 132.681 444.992 132.872 443.846 133.508C443.633 133.635 442.487 134.44 440.406 135.924C440.193 136.093 439.981 136.136 439.769 136.051C439.599 135.924 439.514 135.754 439.514 135.542C439.471 135.33 439.556 135.14 439.769 134.97C442.232 133.275 443.888 132.3 444.737 132.046C445.12 131.918 445.417 131.855 445.629 131.855C445.927 131.855 446.33 131.982 446.84 132.236C446.84 132.236 446.84 132.258 446.84 132.3Z" fill="#2B2C30"/>
<path d="M467.618 147.113C467.618 147.706 467.767 148.088 468.064 148.257L468.255 148.321C468.297 148.321 468.34 148.321 468.382 148.321C468.467 148.363 468.531 148.384 468.573 148.384C469.338 148.427 470.4 148.194 471.759 147.685C474.477 146.626 478.129 144.633 482.715 141.709C484.074 140.819 485.837 139.632 488.003 138.149C490.168 136.623 491.803 135.521 492.908 134.843C493.077 134.716 493.247 134.716 493.417 134.843C493.63 134.97 493.736 135.14 493.736 135.352C493.736 135.521 493.651 135.691 493.481 135.86C486.516 140.607 481.356 143.892 478.001 145.714C474.646 147.579 472.077 148.745 470.293 149.211C469.571 149.423 468.934 149.508 468.382 149.465C467.533 149.465 466.96 149.084 466.662 148.321C466.408 147.558 466.471 146.816 466.853 146.096C467.066 145.63 467.299 145.184 467.554 144.761C467.852 144.337 468.149 143.934 468.446 143.553C468.743 143.129 469.019 142.747 469.274 142.408C469.571 142.027 469.89 141.624 470.23 141.2C470.569 140.777 470.867 140.395 471.122 140.056C472.905 137.555 473.797 135.161 473.797 132.872C473.797 132.745 473.797 132.597 473.797 132.427C473.797 132.215 473.797 132.046 473.797 131.918V130.329C470.994 132.66 468.573 134.504 466.535 135.86C466.195 136.072 465.919 136.03 465.707 135.733C465.495 135.436 465.558 135.161 465.898 134.907C466.238 134.652 466.854 134.207 467.745 133.571C468.637 132.893 469.359 132.342 469.911 131.918C470.506 131.495 471.185 130.986 471.95 130.393C472.714 129.757 473.372 129.206 473.924 128.74C474.222 125.815 474.986 123.717 476.218 122.446C476.557 122.149 476.918 121.937 477.301 121.81C477.683 121.683 478.129 121.768 478.638 122.064L478.702 122.128H478.766C479.148 122.425 479.318 122.848 479.275 123.399C479.275 123.95 479.148 124.417 478.893 124.798C478.214 125.985 476.897 127.532 474.944 129.439C474.944 129.524 474.944 129.63 474.944 129.757C474.944 129.884 474.944 129.99 474.944 130.075C474.901 130.456 474.88 131.028 474.88 131.791C474.88 131.876 474.88 132.024 474.88 132.236C474.922 132.448 474.944 132.597 474.944 132.681C474.944 134.207 474.689 135.563 474.179 136.75C473.67 137.937 472.948 139.208 472.013 140.565C471.886 140.777 471.249 141.603 470.102 143.044C468.998 144.485 468.255 145.608 467.873 146.414C467.745 146.668 467.66 146.901 467.618 147.113ZM476.727 123.844C476.09 124.65 475.623 125.836 475.326 127.405C476.557 126.048 477.492 124.777 478.129 123.59C478.171 123.336 478.171 123.187 478.129 123.145C478.129 123.103 478.129 123.082 478.129 123.082C477.704 122.87 477.237 123.124 476.727 123.844Z" fill="#2B2C30"/>
<path d="M546.289 134.907C546.459 134.779 546.629 134.779 546.799 134.907C547.011 134.991 547.117 135.14 547.117 135.352C547.16 135.521 547.096 135.691 546.926 135.86C543.571 138.064 540.047 139.653 536.352 140.628C535.63 140.798 534.228 141.116 532.147 141.582C530.067 142.048 528.474 142.451 527.37 142.79C526.648 144.782 525.756 146.435 524.694 147.749C523.675 149.105 522.316 149.995 520.617 150.419C520.15 150.546 519.789 150.588 519.534 150.546C518.855 150.546 518.367 150.271 518.069 149.72C517.772 149.211 517.73 148.618 517.942 147.939C518.579 146.71 519.492 145.714 520.681 144.951C521.828 144.146 523.25 143.383 524.949 142.663C525.799 142.366 526.351 142.196 526.605 142.154C526.648 141.942 526.881 141.137 527.306 139.738C527.773 138.34 528.092 137.386 528.262 136.877C528.432 136.369 528.708 135.648 529.09 134.716C529.514 133.741 529.918 132.914 530.3 132.236C529.578 132.703 528.559 133.402 527.242 134.334C525.926 135.224 525.183 135.733 525.013 135.86C524.801 135.987 524.588 136.008 524.376 135.924C524.206 135.839 524.1 135.712 524.057 135.542C524.057 135.33 524.142 135.14 524.312 134.97C527.837 132.512 530.873 130.329 533.422 128.422C533.591 128.252 533.782 128.231 533.995 128.358C534.207 128.443 534.335 128.591 534.377 128.803C534.42 128.973 534.356 129.142 534.186 129.312C532.445 130.795 531.022 132.787 529.918 135.288C529.621 135.881 528.877 138.043 527.688 141.773C528.198 141.603 529.939 141.158 532.912 140.438C535.927 139.717 538.178 139.06 539.664 138.467C542 137.577 544.208 136.39 546.289 134.907ZM518.643 148.829C518.643 149.338 518.982 149.592 519.662 149.592C519.832 149.592 520.023 149.571 520.235 149.529C520.405 149.486 520.617 149.423 520.872 149.338C521.085 149.296 521.233 149.253 521.318 149.211C523.484 148.278 525.119 146.223 526.223 143.044L525.268 143.362C522.337 144.506 520.32 145.841 519.216 147.367C518.834 147.961 518.643 148.448 518.643 148.829Z" fill="#2B2C30"/>
<path d="M555.319 135.352L555.446 135.542H555.383C554.788 135.712 553.875 136.093 552.644 136.687C550.011 137.958 548.163 138.763 547.102 139.102C546.337 139.357 545.7 139.505 545.19 139.547C544.384 139.547 543.853 139.357 543.598 138.975C543.046 138.212 543.173 137.428 543.98 136.623C544.787 135.775 545.679 135.161 546.656 134.779C548.015 134.186 549.246 133.889 550.35 133.889C550.563 133.889 550.711 133.91 550.796 133.953H550.924C551.094 133.995 551.2 134.101 551.242 134.271C551.327 134.398 551.306 134.546 551.178 134.716C551.094 134.843 550.966 134.907 550.796 134.907H550.35C549.628 134.907 548.545 135.224 547.102 135.86C546.167 136.284 545.445 136.75 544.936 137.259C544.596 137.64 544.447 137.958 544.49 138.212C544.49 138.509 544.723 138.615 545.19 138.53C545.997 138.53 547.165 138.234 548.694 137.64C549.374 137.344 550.35 136.899 551.624 136.305C552.898 135.712 553.769 135.33 554.236 135.161C554.236 135.118 554.364 135.055 554.618 134.97C554.873 134.843 555.085 134.758 555.255 134.716C555.255 134.716 555.277 134.716 555.319 134.716C555.362 134.716 555.404 134.716 555.446 134.716H555.638C555.68 134.716 555.744 134.737 555.829 134.779C555.871 134.779 555.892 134.779 555.892 134.779C555.892 134.779 555.914 134.779 555.956 134.779C556.083 134.949 556.147 135.118 556.147 135.288C556.147 135.585 556.083 135.881 555.956 136.178C555.871 136.475 555.744 136.814 555.574 137.195C555.404 137.534 555.298 137.767 555.255 137.895C554.618 139.293 554.3 140.204 554.3 140.628C554.3 140.671 554.3 140.734 554.3 140.819C554.342 140.861 554.364 140.883 554.364 140.883H554.427L554.555 140.946H554.873C554.958 140.946 555.043 140.946 555.128 140.946C555.213 140.904 555.277 140.883 555.319 140.883C556.508 140.755 557.995 140.332 559.778 139.611C563.006 138.467 566 136.899 568.76 134.907C568.973 134.779 569.164 134.779 569.333 134.907C569.546 134.991 569.652 135.14 569.652 135.352C569.695 135.521 569.631 135.691 569.461 135.86C565.002 138.785 560.67 140.692 556.466 141.582C556.253 141.624 555.914 141.688 555.446 141.773C555.404 141.773 555.319 141.773 555.192 141.773C555.064 141.773 554.979 141.773 554.937 141.773H554.682C554.64 141.773 554.576 141.773 554.491 141.773C554.406 141.773 554.342 141.773 554.3 141.773L554.236 141.709H554.109C554.066 141.709 554.024 141.709 553.981 141.709C553.599 141.455 553.408 141.094 553.408 140.628C553.408 139.823 553.684 138.869 554.236 137.767C554.831 136.665 555.192 135.86 555.319 135.352Z" fill="#2B2C30"/>
<path d="M591.152 134.97C591.492 134.801 591.768 134.885 591.981 135.224C592.193 135.521 592.15 135.775 591.853 135.987C589.942 137.344 587.224 138.891 583.699 140.628C580.217 142.366 576.989 143.786 574.017 144.888C573.932 144.93 573.783 144.973 573.571 145.015C566.818 147.431 563.442 147.282 563.442 144.57C563.442 144.316 563.548 143.828 563.761 143.108C564.058 142.472 564.482 141.667 565.035 140.692C567.116 137.344 570.555 132.83 575.354 127.15C577.52 124.523 580.132 121.556 583.19 118.25C585.95 115.198 588.689 112.337 591.407 109.667C593.913 107.294 595.888 105.641 597.331 104.708C597.331 104.708 597.459 104.645 597.714 104.518C598.011 104.39 598.266 104.327 598.478 104.327C598.903 104.327 599.158 104.454 599.243 104.708C599.37 104.963 599.349 105.302 599.179 105.726C599.009 106.107 598.839 106.446 598.669 106.743C598.542 106.997 598.414 107.209 598.287 107.378C596.928 109.413 594.656 112.189 591.471 115.707C589.645 117.699 587.415 119.988 584.782 122.573C584.188 123.209 583.593 123.802 582.999 124.353C582.404 124.904 581.873 125.413 581.406 125.879C580.939 126.303 580.408 126.79 579.813 127.341C579.219 127.892 578.752 128.316 578.412 128.613C578.115 128.867 577.626 129.291 576.947 129.884C576.31 130.435 575.885 130.816 575.673 131.028C575.46 131.198 574.972 131.601 574.208 132.236C573.486 132.83 573.061 133.19 572.934 133.317C572.806 133.402 572.297 133.826 571.405 134.589C570.555 135.309 570.067 135.712 569.94 135.797C569.94 135.797 569.918 135.818 569.876 135.86C569.833 135.86 569.812 135.86 569.812 135.86C569.048 136.877 568.368 137.831 567.774 138.721C567.137 139.569 566.563 140.416 566.054 141.264C566.054 141.306 565.99 141.434 565.863 141.645C565.735 141.815 565.629 141.985 565.544 142.154C565.417 142.324 565.289 142.557 565.162 142.853C564.992 143.108 564.865 143.341 564.78 143.553C564.695 143.765 564.631 143.998 564.589 144.252C564.546 144.464 564.546 144.655 564.589 144.824C564.631 144.994 564.716 145.121 564.843 145.206C564.971 145.29 565.12 145.375 565.289 145.46C565.459 145.502 565.629 145.545 565.799 145.587C565.969 145.587 566.16 145.587 566.372 145.587C566.585 145.545 566.797 145.524 567.009 145.524C567.179 145.481 567.392 145.439 567.646 145.396C567.859 145.354 568.05 145.333 568.22 145.333C568.347 145.29 568.517 145.248 568.729 145.206C568.984 145.163 569.154 145.121 569.239 145.079C572.254 144.4 576.204 142.917 581.087 140.628C584.485 138.975 587.84 137.089 591.152 134.97ZM597.523 106.87C597.947 106.234 598.266 105.683 598.478 105.217C597.969 105.386 597.268 105.81 596.376 106.488C595.229 107.378 593.807 108.65 592.108 110.303C587.352 114.923 582.043 120.75 576.182 127.786C575.121 129.058 573.974 130.477 572.743 132.046L573.443 131.473C576.501 128.973 580.047 125.773 584.081 121.874C588.116 117.932 591.513 114.351 594.274 111.129C595.845 109.222 596.928 107.802 597.523 106.87Z" fill="#2B2C30"/>
<path d="M593.67 142.726C592.948 142.006 592.799 141.243 593.224 140.438C593.224 140.395 593.287 140.268 593.415 140.056C594.477 138.191 596.281 136.729 598.829 135.669C599.424 135.288 600.167 135.14 601.059 135.224C601.993 135.309 602.185 135.86 601.632 136.877C601.505 137.174 601.144 137.619 600.549 138.212C599.106 139.781 597.47 141.264 595.644 142.663C597.64 143.002 599.828 142.853 602.206 142.218C603.989 141.751 605.688 141.179 607.302 140.501C609.383 139.611 611.081 138.785 612.398 138.022C613.715 137.216 615.265 136.178 617.048 134.907C617.261 134.779 617.452 134.779 617.622 134.907C617.791 134.991 617.876 135.14 617.876 135.352C617.919 135.563 617.855 135.733 617.685 135.86C611.91 139.717 606.792 142.196 602.333 143.298C598.936 144.146 596.366 144.21 594.625 143.489C593.776 144.04 592.884 144.528 591.95 144.951C591.015 145.333 589.975 145.524 588.828 145.524C587.639 145.481 586.79 144.994 586.28 144.061C585.813 143.298 585.898 142.196 586.535 140.755C587.342 139.102 588.934 137.174 591.313 134.97C592.247 134.122 593.5 133.19 595.071 132.173C596.642 131.113 597.555 130.901 597.81 131.537C597.938 131.876 597.831 132.13 597.492 132.3C596.94 132.512 596.112 132.999 595.007 133.762C592.629 135.5 590.676 137.322 589.147 139.23C587.321 141.434 586.854 142.981 587.745 143.871C587.788 143.871 587.83 143.892 587.873 143.934C587.915 143.934 587.936 143.934 587.936 143.934C588.149 144.188 588.637 144.316 589.402 144.316C590.548 144.231 591.971 143.701 593.67 142.726ZM599.148 136.559C597.959 137.026 596.621 137.916 595.135 139.23C593.648 140.501 593.415 141.476 594.434 142.154C597.109 140.416 599.169 138.594 600.613 136.687C600.656 136.602 600.762 136.411 600.932 136.114H600.613C600.104 136.199 599.615 136.348 599.148 136.559Z" fill="#2B2C30"/>
<path d="M629.043 144.951C629.043 145.036 629.086 145.079 629.171 145.079C629.213 145.121 629.255 145.142 629.298 145.142H629.425C629.808 145.142 630.657 144.888 631.973 144.379C635.286 143.108 639.957 140.501 645.988 136.559L648.536 134.907C648.833 134.695 649.088 134.758 649.3 135.097C649.513 135.394 649.47 135.648 649.173 135.86C645.138 138.742 640.403 141.54 634.967 144.252C633.651 144.93 632.271 145.481 630.827 145.905C630.105 146.075 629.531 146.159 629.107 146.159H628.916C628.873 146.159 628.81 146.159 628.725 146.159C628.682 146.117 628.661 146.096 628.661 146.096C628.024 145.926 627.705 145.46 627.705 144.697C627.748 144.188 627.918 143.637 628.215 143.044C628.81 141.815 629.914 139.929 631.527 137.386C632.334 136.199 632.886 135.288 633.184 134.652C633.311 134.398 633.396 134.165 633.439 133.953V133.889H633.247C633.162 133.889 632.802 133.995 632.165 134.207C631.57 134.419 630.933 134.652 630.253 134.907C629.616 135.161 629.022 135.415 628.47 135.669C627.96 135.881 627.366 136.157 626.686 136.496C626.007 136.835 625.433 137.132 624.966 137.386C624.542 137.598 623.968 137.895 623.246 138.276C622.524 138.657 621.972 138.954 621.59 139.166C621.25 139.336 620.677 139.653 619.87 140.12C619.106 140.544 618.575 140.84 618.277 141.01C616.451 141.985 614.901 142.853 613.627 143.616C613.585 143.659 613.564 143.68 613.564 143.68C613.181 144.019 612.863 144.231 612.608 144.316H612.417C612.374 144.4 612.268 144.273 612.098 143.934V143.68C612.183 143.553 612.374 143.383 612.672 143.171C612.927 142.959 613.096 142.79 613.181 142.663C614.37 141.306 615.368 139.781 616.175 138.085C616.6 137.195 616.812 136.453 616.812 135.86C616.473 135.521 616.557 135.224 617.067 134.97C617.407 134.801 617.662 134.864 617.832 135.161C617.832 135.161 617.832 135.182 617.832 135.224C617.917 135.352 617.959 135.436 617.959 135.479C618.044 135.691 618.065 135.966 618.023 136.305C617.768 137.704 616.855 139.484 615.284 141.645C621.229 138.382 625.731 136.051 628.788 134.652C630.869 133.72 632.313 133.148 633.12 132.936C633.587 132.851 633.991 132.936 634.33 133.19C634.67 133.402 634.776 133.72 634.649 134.144C634.564 134.483 634.437 134.843 634.267 135.224C634.097 135.606 633.948 135.903 633.821 136.114C633.693 136.326 633.481 136.665 633.184 137.132C632.929 137.555 632.759 137.831 632.674 137.958C631.103 140.374 630.02 142.196 629.425 143.426C629.171 143.977 629.043 144.485 629.043 144.951Z" fill="#2B2C30"/>
<path d="M48.1456 0C54.4521 0 59.612 0.953629 63.6252 2.86089C67.734 4.67278 71.365 6.81844 74.5182 9.29788C76.4293 10.7283 77.8626 10.919 78.8181 9.87004C79.8692 8.72569 80.5858 6.10322 80.9681 2.00263H84.2646C84.0735 5.53105 83.9302 9.82237 83.8346 14.8766C83.7391 19.9308 83.6913 26.6062 83.6913 34.9028H80.3947C79.7259 30.8022 79.1048 27.5598 78.5315 25.1758C77.9581 22.6963 77.2415 20.5984 76.3815 18.8818C75.6171 17.1653 74.566 15.4488 73.2283 13.7322C70.2661 9.82236 66.5396 7.00916 62.0486 5.29263C57.5576 3.48074 52.8277 2.5748 47.859 2.5748C43.1769 2.5748 38.9248 3.76683 35.1027 6.1509C31.3761 8.43961 28.1273 11.7773 25.3563 16.164C22.6808 20.5507 20.5786 25.8433 19.0498 32.0419C17.6165 38.2405 16.8998 45.2019 16.8998 52.9263C16.8998 60.9368 17.712 68.0413 19.3364 74.2399C20.9608 80.3431 23.2063 85.4927 26.0729 89.6887C29.0351 93.8846 32.475 97.0793 36.3926 99.2726C40.4058 101.371 44.7057 102.42 49.2923 102.42C53.5921 102.42 58.0831 101.561 62.7652 99.8448C67.4473 98.1283 71.1261 95.3628 73.8016 91.5482C75.9038 88.7827 77.3371 85.7788 78.1015 82.5365C78.9615 79.2941 79.7259 74.7644 80.3947 68.9473H83.6913C83.6913 77.6253 83.7391 84.6344 83.8346 89.9748C83.9302 95.2197 84.0735 99.6541 84.2646 103.278H80.9681C80.5858 99.1773 79.917 96.6025 78.9614 95.5535C78.1015 94.5045 76.6204 94.6475 74.5182 95.9826C70.9828 98.462 67.2084 100.655 63.1952 102.563C59.2775 104.375 54.2132 105.28 48.0023 105.28C38.9248 105.28 30.9461 103.23 24.0663 99.1296C17.282 95.029 11.9789 89.1165 8.15674 81.3921C4.43018 73.6677 2.56689 64.3699 2.56689 53.4985C2.56689 42.8179 4.52573 33.4723 8.4434 25.4619C12.3611 17.4514 17.712 11.2051 24.4963 6.72308C31.3761 2.24103 39.2592 0 48.1456 0Z" fill="#2B2C30"/>
<path d="M145.248 103.278V100.417C148.497 100.226 150.933 99.8448 152.558 99.2726C154.278 98.7004 155.424 97.5561 155.998 95.8396C156.571 94.123 156.858 91.5482 156.858 88.1152V17.1653C156.858 13.6369 156.571 11.0621 155.998 9.44092C155.424 7.72439 154.278 6.58004 152.558 6.00786C150.933 5.34032 148.497 4.95887 145.248 4.86351V2.00263C147.446 2.09799 150.217 2.19335 153.561 2.28871C156.905 2.38407 160.202 2.43175 163.451 2.43175C167.177 2.43175 170.665 2.38407 173.914 2.28871C177.163 2.19335 179.79 2.09799 181.797 2.00263V4.86351C178.548 4.95887 176.064 5.34032 174.344 6.00786C172.719 6.58004 171.621 7.72439 171.047 9.44092C170.474 11.0621 170.187 13.6369 170.187 17.1653V88.1152C170.187 91.5482 170.474 94.123 171.047 95.8396C171.621 97.5561 172.719 98.7004 174.344 99.2726C176.064 99.8448 178.548 100.226 181.797 100.417V103.278C179.79 103.087 177.163 102.992 173.914 102.992C170.665 102.896 167.177 102.849 163.451 102.849C160.202 102.849 156.905 102.896 153.561 102.992C150.217 102.992 147.446 103.087 145.248 103.278ZM85.3362 103.278V100.417C88.585 100.226 91.0216 99.8448 92.646 99.2726C94.366 98.7004 95.5126 97.5561 96.0859 95.8396C96.6593 94.123 96.9459 91.5482 96.9459 88.1152V17.1653C96.9459 13.6369 96.6593 11.0621 96.0859 9.44092C95.5126 7.72439 94.366 6.58004 92.646 6.00786C91.0216 5.34032 88.585 4.95887 85.3362 4.86351V2.00263C87.3428 2.09799 89.9706 2.19335 93.2194 2.28871C96.4682 2.38407 99.9558 2.43175 103.682 2.43175C107.027 2.43175 110.323 2.38407 113.572 2.28871C116.916 2.19335 119.688 2.09799 121.885 2.00263V4.86351C118.636 4.95887 116.152 5.34032 114.432 6.00786C112.808 6.58004 111.709 7.72439 111.136 9.44092C110.562 11.0621 110.276 13.6369 110.276 17.1653V88.1152C110.276 91.5482 110.562 94.123 111.136 95.8396C111.709 97.5561 112.808 98.7004 114.432 99.2726C116.152 99.8448 118.636 100.226 121.885 100.417V103.278C119.688 103.087 116.916 102.992 113.572 102.992C110.323 102.896 107.027 102.849 103.682 102.849C99.9558 102.849 96.4682 102.896 93.2194 102.992C89.9706 102.992 87.3428 103.087 85.3362 103.278ZM105.259 53.7846V50.9237H161.874V53.7846H105.259Z" fill="#2B2C30"/>
<path d="M251.001 2.00263C250.619 5.34032 250.333 8.58265 250.141 11.7296C250.046 14.8766 249.998 17.2607 249.998 18.8818C249.998 20.5984 250.046 22.2672 250.141 23.8884C250.237 25.4142 250.333 26.7016 250.428 27.7506H247.132C246.558 22.1242 245.746 17.6898 244.695 14.4475C243.644 11.1098 241.828 8.77338 239.248 7.4383C236.764 6.00785 232.99 5.29263 227.925 5.29263H216.029C212.78 5.29263 210.296 5.57872 208.576 6.1509C206.952 6.62772 205.853 7.72439 205.279 9.44092C204.706 11.0621 204.419 13.6369 204.419 17.1653V88.1152C204.419 91.5482 204.706 94.123 205.279 95.8396C205.853 97.5561 206.952 98.7004 208.576 99.2726C210.296 99.7494 212.78 99.9878 216.029 99.9878H226.492C232.512 99.9878 237.051 99.1773 240.108 97.5561C243.262 95.9349 245.507 93.3125 246.845 89.6887C248.278 85.9695 249.329 80.963 249.998 74.669H253.295C253.008 77.2438 252.865 80.6769 252.865 84.9682C252.865 86.7801 252.913 89.4026 253.008 92.8356C253.199 96.1733 253.486 99.6541 253.868 103.278C248.995 103.087 243.501 102.992 237.385 102.992C231.27 102.896 225.823 102.849 221.046 102.849C218.943 102.849 216.22 102.849 212.876 102.849C209.627 102.849 206.092 102.896 202.269 102.992C198.447 102.992 194.577 103.039 190.66 103.135C186.742 103.135 183.016 103.182 179.48 103.278V100.417C182.729 100.226 185.166 99.8448 186.79 99.2726C188.51 98.7004 189.657 97.5561 190.23 95.8396C190.803 94.123 191.09 91.5482 191.09 88.1152V17.1653C191.09 13.6369 190.803 11.0621 190.23 9.44092C189.657 7.72439 188.51 6.58004 186.79 6.00786C185.166 5.34032 182.729 4.95887 179.48 4.86351V2.00263C183.016 2.09799 186.742 2.19335 190.66 2.28871C194.577 2.28871 198.447 2.33639 202.269 2.43175C206.092 2.43175 209.627 2.43175 212.876 2.43175C216.22 2.43175 218.943 2.43175 221.046 2.43175C225.441 2.43175 230.41 2.43175 235.952 2.43175C241.59 2.33639 246.606 2.19335 251.001 2.00263ZM226.349 50.9237C226.349 50.9237 226.349 51.4005 226.349 52.3542C226.349 53.3078 226.349 53.7846 226.349 53.7846H200.12C200.12 53.7846 200.12 53.3078 200.12 52.3542C200.12 51.4005 200.12 50.9237 200.12 50.9237H226.349ZM230.505 32.0419C230.123 37.4776 229.932 41.6258 229.932 44.4867C230.028 47.3476 230.075 49.9701 230.075 52.3542C230.075 54.7382 230.123 57.3607 230.219 60.2216C230.314 63.0825 230.553 67.2307 230.935 72.6664H227.639C227.257 69.6148 226.779 66.6586 226.205 63.7977C225.728 60.8414 224.581 58.4574 222.766 56.6455C221.046 54.7382 218.083 53.7846 213.879 53.7846V50.9237C217.032 50.9237 219.421 50.3039 221.046 49.0641C222.766 47.7291 224.008 46.0602 224.772 44.0576C225.537 42.055 226.062 40.0047 226.349 37.9067C226.635 35.7134 226.922 33.7584 227.209 32.0419H230.505Z" fill="#2B2C30"/>
<path d="M325.3 2.00263V4.86351L268.111 99.9878H296.204C300.695 99.9878 304.326 99.511 307.097 98.5574C309.964 97.6038 312.209 96.1256 313.833 94.123C315.553 92.0251 316.843 89.2595 317.703 85.8265C318.563 82.3934 319.232 78.1974 319.71 73.2386H323.007C322.72 76.1948 322.577 80.1047 322.577 84.9682C322.577 86.7801 322.624 89.4026 322.72 92.8356C322.911 96.1733 323.198 99.6541 323.58 103.278C320.044 103.087 316.175 102.992 311.97 102.992C307.766 102.896 303.562 102.849 299.357 102.849C295.248 102.849 291.426 102.849 287.891 102.849C282.253 102.849 276.281 102.896 269.975 102.992C263.764 102.992 257.935 103.087 252.489 103.278V100.417L310.107 5.29263H282.158C277.667 5.29263 273.988 5.76945 271.121 6.72308C268.35 7.67671 266.105 9.20251 264.385 11.3005C262.76 13.3031 261.518 16.0209 260.658 19.454C259.798 22.8871 259.129 27.083 258.652 32.0419H255.355C255.546 30.5161 255.642 28.7519 255.642 26.7493C255.737 24.7466 255.785 22.601 255.785 20.3123C255.785 18.5004 255.69 15.9256 255.498 12.5879C255.403 9.15483 255.164 5.62641 254.782 2.00263C258.317 2.09799 262.187 2.19335 266.391 2.28871C270.596 2.38407 274.8 2.43175 279.004 2.43175C283.209 2.43175 287.031 2.43175 290.471 2.43175C295.917 2.43175 301.746 2.43175 307.957 2.43175C314.263 2.33639 320.044 2.19335 325.3 2.00263Z" fill="#2B2C30"/>
<path d="M457.417 2.00263V4.86351C454.168 4.95887 451.684 5.34032 449.964 6.00786C448.34 6.58004 447.241 7.72439 446.667 9.44092C446.094 11.0621 445.807 13.6369 445.807 17.1653V88.1152C445.807 91.5482 446.094 94.123 446.667 95.8396C447.241 97.5561 448.34 98.7004 449.964 99.2726C451.684 99.8448 454.168 100.226 457.417 100.417V103.278C455.219 103.087 452.448 102.992 449.104 102.992C445.855 102.896 442.559 102.849 439.214 102.849C435.488 102.849 432 102.896 428.751 102.992C425.502 102.992 422.875 103.087 420.868 103.278V100.417C424.117 100.226 426.553 99.8448 428.178 99.2726C429.898 98.7004 431.044 97.5561 431.618 95.8396C432.191 94.123 432.478 91.5482 432.478 88.1152V9.44092L433.051 9.87004L397.935 103.993H395.642L359.523 11.1574V86.6847C359.523 90.1178 359.81 92.8356 360.383 94.8383C361.052 96.7455 362.294 98.1283 364.11 98.9865C366.021 99.7494 368.839 100.226 372.566 100.417V103.278C370.846 103.087 368.601 102.992 365.83 102.992C363.059 102.896 360.431 102.849 357.946 102.849C355.558 102.849 353.121 102.896 350.637 102.992C348.248 102.992 346.241 103.087 344.617 103.278V100.417C347.866 100.226 350.302 99.7494 351.927 98.9865C353.647 98.1283 354.793 96.7455 355.367 94.8383C355.94 92.8356 356.226 90.1178 356.226 86.6847V17.1653C356.226 13.6369 355.94 11.0621 355.367 9.44092C354.793 7.72439 353.647 6.58004 351.927 6.00786C350.302 5.34032 347.866 4.95887 344.617 4.86351V2.00263C346.241 2.09799 348.248 2.19335 350.637 2.28871C353.121 2.38407 355.558 2.43175 357.946 2.43175C360.049 2.43175 362.199 2.38407 364.396 2.28871C366.69 2.19335 368.601 2.09799 370.129 2.00263L402.665 87.543L400.229 88.6874L432.478 2.43175C433.624 2.43175 434.723 2.43175 435.774 2.43175C436.921 2.43175 438.068 2.43175 439.214 2.43175C442.559 2.43175 445.855 2.38407 449.104 2.28871C452.448 2.19335 455.219 2.09799 457.417 2.00263Z" fill="#2B2C30"/>
<path d="M495.413 1.2874L530.385 91.2622C531.818 94.8859 533.443 97.3177 535.258 98.5574C537.074 99.7018 538.746 100.322 540.275 100.417V103.278C538.364 103.087 536.023 102.992 533.252 102.992C530.481 102.896 527.71 102.849 524.939 102.849C521.212 102.849 517.724 102.896 514.476 102.992C511.227 102.992 508.599 103.087 506.592 103.278V100.417C511.466 100.226 514.571 99.4157 515.909 97.9852C517.247 96.4594 516.96 93.2648 515.049 88.4013L488.39 17.3083L490.683 15.4488L465.744 80.1047C464.215 83.9192 463.307 87.1616 463.02 89.8317C462.734 92.4065 462.973 94.4568 463.737 95.9826C464.597 97.5084 465.982 98.6051 467.893 99.2726C469.9 99.9402 472.384 100.322 475.347 100.417V103.278C472.671 103.087 469.852 102.992 466.89 102.992C464.024 102.896 461.348 102.849 458.864 102.849C456.475 102.849 454.421 102.896 452.701 102.992C451.076 102.992 449.547 103.087 448.114 103.278V100.417C450.025 99.9402 451.984 98.8435 453.991 97.127C455.997 95.3151 457.813 92.2635 459.437 87.9721L493.119 1.2874C493.502 1.2874 493.884 1.2874 494.266 1.2874C494.648 1.2874 495.031 1.2874 495.413 1.2874ZM512.899 62.0812V64.942H470.187L471.62 62.0812H512.899Z" fill="#2B2C30"/>
<path d="M528.286 2.00263C530.292 2.09799 532.92 2.19335 536.169 2.28871C539.417 2.38407 542.619 2.43175 545.772 2.43175C550.263 2.43175 554.563 2.38407 558.671 2.28871C562.78 2.19335 565.695 2.14567 567.414 2.14567C575.154 2.14567 581.556 3.24234 586.621 5.43568C591.78 7.62903 595.603 10.633 598.087 14.4475C600.667 18.1666 601.957 22.3626 601.957 27.0353C601.957 29.8962 601.384 32.9478 600.237 36.1902C599.09 39.4325 597.084 42.4841 594.217 45.345C591.446 48.2059 587.624 50.5899 582.751 52.4972C577.878 54.3091 571.714 55.215 564.261 55.215H550.502V52.3542H562.828C569.612 52.3542 574.772 51.3052 578.307 49.2072C581.939 47.0138 584.375 44.153 585.617 40.6245C586.955 37.0007 587.624 32.9955 587.624 28.6088C587.624 21.0752 585.808 15.258 582.177 11.1574C578.642 6.96148 572.527 4.86351 563.831 4.86351C559.436 4.86351 556.569 5.67409 555.231 7.29526C553.894 8.91642 553.225 12.2064 553.225 17.1653V88.1152C553.225 91.5482 553.512 94.123 554.085 95.8396C554.658 97.5561 555.757 98.7004 557.381 99.2726C559.101 99.8448 561.586 100.226 564.835 100.417V103.278C562.637 103.087 559.866 102.992 556.521 102.992C553.273 102.896 549.976 102.849 546.632 102.849C542.905 102.849 539.417 102.896 536.169 102.992C532.92 102.992 530.292 103.087 528.286 103.278V100.417C531.534 100.226 533.971 99.8448 535.595 99.2726C537.315 98.7004 538.462 97.5561 539.035 95.8396C539.609 94.123 539.895 91.5482 539.895 88.1152V17.1653C539.895 13.6369 539.609 11.0621 539.035 9.44092C538.462 7.72439 537.315 6.58004 535.595 6.00786C533.971 5.34032 531.534 4.95887 528.286 4.86351V2.00263ZM551.075 52.7833C556.235 52.974 560.296 53.2124 563.258 53.4985C566.22 53.6892 568.609 53.88 570.424 54.0707C572.335 54.2614 574.151 54.4998 575.871 54.7859C582.273 55.8349 586.859 57.7898 589.63 60.6507C592.497 63.4162 594.599 67.7552 595.937 73.6677L599.52 88.2582C600.476 92.4542 601.431 95.5058 602.387 97.413C603.438 99.2249 605.015 100.083 607.117 99.9878C608.741 99.8925 610.079 99.368 611.13 98.4144C612.277 97.4607 613.471 96.1733 614.713 94.5522L616.863 96.1256C614.857 99.0819 612.754 101.371 610.557 102.992C608.454 104.518 605.445 105.28 601.527 105.28C597.991 105.28 594.886 104.231 592.21 102.134C589.535 100.036 587.528 95.9349 586.191 89.8317L583.037 75.5273C582.177 71.4267 581.174 67.8983 580.027 64.942C578.976 61.8904 577.448 59.5064 575.441 57.7898C573.53 56.0733 570.663 55.215 566.841 55.215H551.362L551.075 52.7833Z" fill="#2B2C30"/>
<path d="M643.442 2.00263V4.86351C640.193 4.95887 637.709 5.34032 635.989 6.00786C634.364 6.58004 633.265 7.72439 632.692 9.44092C632.119 11.0621 631.832 13.6369 631.832 17.1653V88.1152C631.832 91.5482 632.119 94.123 632.692 95.8396C633.265 97.5561 634.364 98.7004 635.989 99.2726C637.709 99.8448 640.193 100.226 643.442 100.417V103.278C641.244 103.087 638.473 102.992 635.129 102.992C631.88 102.896 628.583 102.849 625.239 102.849C621.512 102.849 618.025 102.896 614.776 102.992C611.527 102.992 608.899 103.087 606.893 103.278V100.417C610.142 100.226 612.578 99.8448 614.203 99.2726C615.922 98.7004 617.069 97.5561 617.642 95.8396C618.216 94.123 618.502 91.5482 618.502 88.1152V17.1653C618.502 13.6369 618.216 11.0621 617.642 9.44092C617.069 7.72439 615.922 6.58004 614.203 6.00786C612.578 5.34032 610.142 4.95887 606.893 4.86351V2.00263C608.899 2.09799 611.527 2.19335 614.776 2.28871C618.025 2.38407 621.512 2.43175 625.239 2.43175C628.583 2.43175 631.88 2.38407 635.129 2.28871C638.473 2.19335 641.244 2.09799 643.442 2.00263Z" fill="#2B2C30"/>
<path d="M3.60587 233.332C3.60587 231.945 3.84054 230.59 4.30987 229.268C4.80054 227.924 5.50454 226.708 6.42187 225.62C7.3392 224.51 8.46987 223.636 9.81387 222.996C11.1579 222.334 12.6832 222.004 14.3899 222.004C16.4165 222.004 18.1445 222.473 19.5739 223.412C21.0245 224.329 22.0912 225.513 22.7739 226.964L21.0139 228.052C20.5232 227.049 19.9045 226.26 19.1579 225.684C18.4112 225.086 17.6112 224.66 16.7579 224.404C15.9259 224.148 15.0939 224.02 14.2619 224.02C12.8965 224.02 11.6912 224.297 10.6459 224.852C9.60054 225.385 8.71521 226.11 7.98987 227.028C7.28587 227.924 6.75254 228.937 6.38987 230.068C6.0272 231.177 5.84587 232.308 5.84587 233.46C5.84587 234.718 6.0592 235.924 6.48587 237.076C6.91254 238.228 7.50987 239.252 8.27787 240.148C9.04587 241.022 9.94187 241.726 10.9659 242.26C12.0112 242.772 13.1419 243.028 14.3579 243.028C15.2112 243.028 16.0859 242.878 16.9819 242.58C17.8779 242.281 18.7099 241.822 19.4779 241.204C20.2672 240.585 20.8965 239.785 21.3659 238.804L23.2219 239.764C22.7525 240.894 22.0272 241.854 21.0459 242.644C20.0645 243.433 18.9659 244.03 17.7499 244.436C16.5552 244.841 15.3819 245.044 14.2299 245.044C12.6725 245.044 11.2432 244.713 9.94187 244.052C8.64054 243.369 7.50987 242.473 6.54987 241.364C5.6112 240.233 4.88587 238.974 4.37387 237.588C3.86187 236.18 3.60587 234.761 3.60587 233.332ZM57.0954 244.852V226.356L48.8714 240.724H47.4634L39.2074 226.356V244.852H36.9674V222.132H39.2714L48.1354 237.684L57.0634 222.132H59.3354V244.852H57.0954ZM88.2299 226.388C87.9099 226.025 87.5365 225.705 87.1099 225.428C86.6832 225.129 86.2032 224.873 85.6699 224.66C85.1365 224.446 84.5605 224.276 83.9419 224.148C83.3445 224.02 82.7045 223.956 82.0219 223.956C80.0379 223.956 78.5765 224.34 77.6379 225.108C76.7205 225.854 76.2619 226.878 76.2619 228.18C76.2619 229.076 76.4752 229.78 76.9019 230.292C77.3499 230.804 78.0432 231.22 78.9819 231.54C79.9205 231.86 81.1152 232.19 82.5659 232.532C84.1872 232.873 85.5845 233.278 86.7579 233.748C87.9312 234.217 88.8379 234.857 89.4779 235.668C90.1179 236.457 90.4379 237.534 90.4379 238.9C90.4379 239.945 90.2352 240.852 89.8299 241.62C89.4245 242.388 88.8592 243.028 88.1339 243.54C87.4085 244.052 86.5445 244.436 85.5419 244.692C84.5392 244.926 83.4405 245.044 82.2459 245.044C81.0725 245.044 79.9419 244.926 78.8539 244.692C77.7872 244.436 76.7739 244.073 75.8139 243.604C74.8539 243.113 73.9579 242.494 73.1259 241.748L74.2459 239.924C74.6512 240.35 75.1312 240.756 75.6859 241.14C76.2619 241.502 76.8912 241.833 77.5739 242.132C78.2779 242.43 79.0245 242.665 79.8139 242.836C80.6245 242.985 81.4565 243.06 82.3099 243.06C84.1232 243.06 85.5312 242.729 86.5339 242.068C87.5579 241.406 88.0699 240.425 88.0699 239.124C88.0699 238.185 87.8139 237.438 87.3019 236.884C86.7899 236.308 86.0219 235.838 84.9979 235.476C83.9739 235.113 82.7152 234.761 81.2219 234.42C79.6432 234.057 78.3099 233.652 77.2219 233.204C76.1339 232.756 75.3125 232.169 74.7579 231.444C74.2245 230.697 73.9579 229.716 73.9579 228.5C73.9579 227.092 74.2992 225.908 74.9819 224.948C75.6859 223.966 76.6459 223.23 77.8619 222.74C79.0779 222.228 80.4752 221.972 82.0539 221.972C83.0565 221.972 83.9845 222.078 84.8379 222.292C85.7125 222.484 86.5125 222.772 87.2379 223.156C87.9845 223.54 88.6779 224.02 89.3179 224.596L88.2299 226.388ZM129.803 222.292H131.915L135.115 230.356L138.347 222.292H140.491L136.523 231.988L140.875 242.26L149.099 222.132H151.531L141.899 244.852H139.915L135.147 233.62L130.347 244.852H128.395L118.795 222.132H121.195L129.451 242.26L133.771 231.988L129.803 222.292ZM172.956 245.012C171.356 245.012 169.905 244.692 168.604 244.052C167.302 243.412 166.182 242.548 165.244 241.46C164.305 240.35 163.58 239.113 163.068 237.748C162.556 236.361 162.3 234.942 162.3 233.492C162.3 231.977 162.566 230.537 163.1 229.172C163.633 227.785 164.38 226.558 165.34 225.492C166.321 224.404 167.462 223.55 168.764 222.932C170.065 222.292 171.473 221.972 172.988 221.972C174.588 221.972 176.038 222.302 177.34 222.964C178.641 223.625 179.75 224.51 180.668 225.62C181.606 226.729 182.332 227.966 182.844 229.332C183.356 230.697 183.612 232.094 183.612 233.524C183.612 235.038 183.345 236.489 182.812 237.876C182.278 239.241 181.532 240.468 180.572 241.556C179.612 242.622 178.481 243.465 177.18 244.084C175.878 244.702 174.47 245.012 172.956 245.012ZM164.54 233.492C164.54 234.729 164.742 235.924 165.148 237.076C165.553 238.206 166.129 239.22 166.876 240.116C167.622 240.99 168.508 241.694 169.532 242.228C170.577 242.74 171.718 242.996 172.956 242.996C174.257 242.996 175.42 242.729 176.444 242.196C177.489 241.641 178.374 240.916 179.1 240.02C179.846 239.102 180.412 238.078 180.796 236.948C181.18 235.817 181.372 234.665 181.372 233.492C181.372 232.254 181.169 231.07 180.764 229.94C180.358 228.809 179.772 227.796 179.004 226.9C178.257 226.004 177.372 225.3 176.348 224.788C175.324 224.276 174.193 224.02 172.956 224.02C171.676 224.02 170.513 224.286 169.468 224.82C168.444 225.353 167.558 226.078 166.812 226.996C166.086 227.892 165.521 228.905 165.116 230.036C164.732 231.166 164.54 232.318 164.54 233.492ZM197.755 244.852V222.132H207.355C208.336 222.132 209.232 222.334 210.043 222.74C210.854 223.145 211.558 223.7 212.155 224.404C212.774 225.086 213.243 225.854 213.563 226.708C213.904 227.54 214.075 228.393 214.075 229.268C214.075 230.356 213.862 231.38 213.435 232.34C213.03 233.3 212.443 234.11 211.675 234.772C210.928 235.433 210.043 235.87 209.019 236.084L214.587 244.852H212.059L206.715 236.468H199.995V244.852H197.755ZM199.995 234.484H207.419C208.315 234.484 209.094 234.238 209.755 233.748C210.416 233.257 210.928 232.617 211.291 231.828C211.654 231.017 211.835 230.164 211.835 229.268C211.835 228.35 211.622 227.508 211.195 226.74C210.79 225.95 210.235 225.321 209.531 224.852C208.848 224.361 208.08 224.116 207.227 224.116H199.995V234.484ZM228.581 244.852V222.132H236.293C238.704 222.132 240.709 222.644 242.309 223.668C243.93 224.67 245.146 226.036 245.957 227.764C246.768 229.47 247.173 231.369 247.173 233.46C247.173 235.764 246.725 237.769 245.829 239.476C244.954 241.182 243.696 242.505 242.053 243.444C240.432 244.382 238.512 244.852 236.293 244.852H228.581ZM244.933 233.46C244.933 231.646 244.592 230.036 243.909 228.628C243.248 227.22 242.277 226.121 240.997 225.332C239.717 224.521 238.149 224.116 236.293 224.116H230.821V242.868H236.293C238.17 242.868 239.749 242.452 241.029 241.62C242.309 240.788 243.28 239.668 243.941 238.26C244.602 236.83 244.933 235.23 244.933 233.46ZM261.376 244.852V222.132H270.784C271.765 222.132 272.661 222.334 273.472 222.74C274.304 223.145 275.019 223.7 275.616 224.404C276.213 225.086 276.683 225.854 277.024 226.708C277.365 227.54 277.536 228.393 277.536 229.268C277.536 230.505 277.259 231.678 276.704 232.788C276.171 233.876 275.413 234.761 274.432 235.444C273.451 236.126 272.299 236.468 270.976 236.468H263.616V244.852H261.376ZM263.616 234.484H270.88C271.776 234.484 272.555 234.238 273.216 233.748C273.877 233.257 274.389 232.617 274.752 231.828C275.115 231.038 275.296 230.185 275.296 229.268C275.296 228.329 275.083 227.465 274.656 226.676C274.229 225.886 273.664 225.268 272.96 224.82C272.277 224.35 271.52 224.116 270.688 224.116H263.616V234.484ZM291.202 244.852V222.132H300.802C301.784 222.132 302.68 222.334 303.49 222.74C304.301 223.145 305.005 223.7 305.602 224.404C306.221 225.086 306.69 225.854 307.01 226.708C307.352 227.54 307.522 228.393 307.522 229.268C307.522 230.356 307.309 231.38 306.882 232.34C306.477 233.3 305.89 234.11 305.122 234.772C304.376 235.433 303.49 235.87 302.466 236.084L308.034 244.852H305.506L300.162 236.468H293.442V244.852H291.202ZM293.442 234.484H300.866C301.762 234.484 302.541 234.238 303.202 233.748C303.864 233.257 304.376 232.617 304.738 231.828C305.101 231.017 305.282 230.164 305.282 229.268C305.282 228.35 305.069 227.508 304.642 226.74C304.237 225.95 303.682 225.321 302.978 224.852C302.296 224.361 301.528 224.116 300.674 224.116H293.442V234.484ZM337.293 242.868V244.852H322.029V222.132H337.005V224.116H324.269V232.308H335.373V234.196H324.269V242.868H337.293ZM364.604 226.388C364.284 226.025 363.91 225.705 363.484 225.428C363.057 225.129 362.577 224.873 362.044 224.66C361.51 224.446 360.934 224.276 360.316 224.148C359.718 224.02 359.078 223.956 358.396 223.956C356.412 223.956 354.95 224.34 354.012 225.108C353.094 225.854 352.636 226.878 352.636 228.18C352.636 229.076 352.849 229.78 353.276 230.292C353.724 230.804 354.417 231.22 355.356 231.54C356.294 231.86 357.489 232.19 358.94 232.532C360.561 232.873 361.958 233.278 363.132 233.748C364.305 234.217 365.212 234.857 365.852 235.668C366.492 236.457 366.812 237.534 366.812 238.9C366.812 239.945 366.609 240.852 366.204 241.62C365.798 242.388 365.233 243.028 364.508 243.54C363.782 244.052 362.918 244.436 361.916 244.692C360.913 244.926 359.814 245.044 358.62 245.044C357.446 245.044 356.316 244.926 355.228 244.692C354.161 244.436 353.148 244.073 352.188 243.604C351.228 243.113 350.332 242.494 349.5 241.748L350.62 239.924C351.025 240.35 351.505 240.756 352.06 241.14C352.636 241.502 353.265 241.833 353.948 242.132C354.652 242.43 355.398 242.665 356.188 242.836C356.998 242.985 357.83 243.06 358.684 243.06C360.497 243.06 361.905 242.729 362.908 242.068C363.932 241.406 364.444 240.425 364.444 239.124C364.444 238.185 364.188 237.438 363.676 236.884C363.164 236.308 362.396 235.838 361.372 235.476C360.348 235.113 359.089 234.761 357.596 234.42C356.017 234.057 354.684 233.652 353.596 233.204C352.508 232.756 351.686 232.169 351.132 231.444C350.598 230.697 350.332 229.716 350.332 228.5C350.332 227.092 350.673 225.908 351.356 224.948C352.06 223.966 353.02 223.23 354.236 222.74C355.452 222.228 356.849 221.972 358.428 221.972C359.43 221.972 360.358 222.078 361.212 222.292C362.086 222.484 362.886 222.772 363.612 223.156C364.358 223.54 365.052 224.02 365.692 224.596L364.604 226.388ZM393.961 226.388C393.641 226.025 393.268 225.705 392.841 225.428C392.414 225.129 391.934 224.873 391.401 224.66C390.868 224.446 390.292 224.276 389.673 224.148C389.076 224.02 388.436 223.956 387.753 223.956C385.769 223.956 384.308 224.34 383.369 225.108C382.452 225.854 381.993 226.878 381.993 228.18C381.993 229.076 382.206 229.78 382.633 230.292C383.081 230.804 383.774 231.22 384.713 231.54C385.652 231.86 386.846 232.19 388.297 232.532C389.918 232.873 391.316 233.278 392.489 233.748C393.662 234.217 394.569 234.857 395.209 235.668C395.849 236.457 396.169 237.534 396.169 238.9C396.169 239.945 395.966 240.852 395.561 241.62C395.156 242.388 394.59 243.028 393.865 243.54C393.14 244.052 392.276 244.436 391.273 244.692C390.27 244.926 389.172 245.044 387.977 245.044C386.804 245.044 385.673 244.926 384.585 244.692C383.518 244.436 382.505 244.073 381.545 243.604C380.585 243.113 379.689 242.494 378.857 241.748L379.977 239.924C380.382 240.35 380.862 240.756 381.417 241.14C381.993 241.502 382.622 241.833 383.305 242.132C384.009 242.43 384.756 242.665 385.545 242.836C386.356 242.985 387.188 243.06 388.041 243.06C389.854 243.06 391.262 242.729 392.265 242.068C393.289 241.406 393.801 240.425 393.801 239.124C393.801 238.185 393.545 237.438 393.033 236.884C392.521 236.308 391.753 235.838 390.729 235.476C389.705 235.113 388.446 234.761 386.953 234.42C385.374 234.057 384.041 233.652 382.953 233.204C381.865 232.756 381.044 232.169 380.489 231.444C379.956 230.697 379.689 229.716 379.689 228.5C379.689 227.092 380.03 225.908 380.713 224.948C381.417 223.966 382.377 223.23 383.593 222.74C384.809 222.228 386.206 221.972 387.785 221.972C388.788 221.972 389.716 222.078 390.569 222.292C391.444 222.484 392.244 222.772 392.969 223.156C393.716 223.54 394.409 224.02 395.049 224.596L393.961 226.388ZM435.534 222.292H437.646L440.846 230.356L444.078 222.292H446.222L442.254 231.988L446.606 242.26L454.83 222.132H457.262L447.63 244.852H445.646L440.878 233.62L436.078 244.852H434.126L424.526 222.132H426.926L435.182 242.26L439.502 231.988L435.534 222.292ZM470.379 244.852V222.132H472.619V244.852H470.379ZM504.364 224.116H496.268V244.852H494.028V224.116H485.932V222.132H504.364V224.116ZM535.607 222.132V244.852H533.399V234.228H519.927V244.852H517.687V222.132H519.927V232.244H533.399V222.132H535.607ZM569.309 244.852V222.132H578.717C579.698 222.132 580.594 222.334 581.405 222.74C582.237 223.145 582.951 223.7 583.549 224.404C584.146 225.086 584.615 225.854 584.957 226.708C585.298 227.54 585.469 228.393 585.469 229.268C585.469 230.505 585.191 231.678 584.637 232.788C584.103 233.876 583.346 234.761 582.365 235.444C581.383 236.126 580.231 236.468 578.909 236.468H571.549V244.852H569.309ZM571.549 234.484H578.813C579.709 234.484 580.487 234.238 581.149 233.748C581.81 233.257 582.322 232.617 582.685 231.828C583.047 231.038 583.229 230.185 583.229 229.268C583.229 228.329 583.015 227.465 582.589 226.676C582.162 225.886 581.597 225.268 580.893 224.82C580.21 224.35 579.453 224.116 578.621 224.116H571.549V234.484ZM617.055 222.132V244.852H614.847V234.228H601.375V244.852H599.135V222.132H601.375V232.244H614.847V222.132H617.055ZM632.68 244.852V222.132H642.088C643.069 222.132 643.965 222.334 644.776 222.74C645.608 223.145 646.323 223.7 646.92 224.404C647.517 225.086 647.987 225.854 648.328 226.708C648.669 227.54 648.84 228.393 648.84 229.268C648.84 230.505 648.563 231.678 648.008 232.788C647.475 233.876 646.717 234.761 645.736 235.444C644.755 236.126 643.603 236.468 642.28 236.468H634.92V244.852H632.68ZM634.92 234.484H642.184C643.08 234.484 643.859 234.238 644.52 233.748C645.181 233.257 645.693 232.617 646.056 231.828C646.419 231.038 646.6 230.185 646.6 229.268C646.6 228.329 646.387 227.465 645.96 226.676C645.533 225.886 644.968 225.268 644.264 224.82C643.581 224.35 642.824 224.116 641.992 224.116H634.92V234.484Z" fill="#2B2C30"/>
<line y1="178.579" x2="652" y2="178.579" stroke="black" stroke-width="0.5"/>
</svg>
