<svg width="305" height="180" viewBox="0 0 305 180" fill="none" xmlns="http://www.w3.org/2000/svg">
<g clip-path="url(#clip0_605_3429)">
<path d="M217.443 166.012L151.56 140.268L87.7002 168.42L217.443 166.012Z" fill="#B1A593"/>
<path d="M156.656 137.763L221.679 163.156L256.954 93.3895L156.656 137.763Z" fill="#B1A593"/>
<path d="M200.069 113.487L188.825 105.528L255.839 88.9712L200.069 113.487Z" fill="#B1A593"/>
<path d="M196.613 115.672L152.675 79.4807L152.468 135.562L196.613 115.672Z" fill="#B1A593"/>
<path d="M148.28 136.44L149.156 79.9273L105.282 122.754L148.28 136.44Z" fill="#B1A593"/>
<path d="M144.522 139.981L47.5369 107.075L81.9194 168.229L144.522 139.981Z" fill="#B1A593"/>
<path d="M113.658 110.839L102.431 122.1L54.5918 105.751L113.658 110.839Z" fill="#B1A593"/>
<path d="M150.255 68.2836L186.214 102.306C195.45 93.1662 201.008 80.5494 200.594 66.7842C199.798 39.8919 176.611 18.7576 148.805 19.5871C121 20.4165 99.1028 42.8906 99.9149 69.7988C100.313 83.1972 106.269 95.16 115.569 103.693L150.255 68.2995V68.2836Z" fill="#ED960A"/>
<path d="M98.4163 41.2627C98.5826 41.3546 98.7597 41.5097 98.9477 41.728C99.4045 42.2664 99.6326 42.9297 99.6319 43.7178C99.6252 44.4341 99.4408 45.1206 99.0787 45.7774C98.4848 46.8545 97.6216 47.457 96.4891 47.5848C95.5051 47.6919 94.453 47.4356 93.333 46.8161C92.4054 46.303 91.6144 45.6769 90.9599 44.9378C90.211 44.1008 89.7479 43.2218 89.5705 42.3008C89.4345 41.5742 89.5089 40.9526 89.7938 40.4359C90.2042 39.6915 90.8394 39.3058 91.6994 39.2787C92.3982 39.2538 93.1458 39.4616 93.9421 39.9021C94.3009 40.1005 94.7009 40.4418 95.142 40.9257C95.6863 41.5125 95.8836 41.9417 95.734 42.2131C95.565 42.5196 95.2445 42.6452 94.7726 42.5899C94.7596 42.4684 94.7266 42.2901 94.6735 42.0551C94.5775 41.7734 94.2495 41.4777 93.6895 41.168C93.147 40.8679 92.6562 40.6707 92.2171 40.5764C91.5518 40.4369 91.108 40.5686 90.8859 40.9714C90.7314 41.2517 90.7418 41.6574 90.9171 42.1886C91.0483 42.5926 91.2319 42.9741 91.4679 43.3332C92.0713 44.2269 92.9987 45.0199 94.2501 45.712C96.0702 46.7188 97.3569 46.5391 98.1101 45.173C98.4336 44.5863 98.5233 44.0302 98.3791 43.5048C98.3076 43.2824 98.1104 42.9048 97.7875 42.3719C97.5477 41.9993 97.4857 41.7079 97.6015 41.4977C97.6788 41.3576 97.8033 41.2664 97.975 41.2243C98.1379 41.1773 98.285 41.1901 98.4163 41.2627Z" fill="black"/>
<path d="M102.382 30.8948C102.436 30.9395 102.514 31.0175 102.617 31.1287C102.714 31.4821 102.689 31.7474 102.542 31.9246C102.421 32.071 102.228 32.1317 101.963 32.1067C101.604 31.8346 101.329 31.8141 101.138 32.0452C101.023 32.1839 101.248 32.6568 101.813 33.464C102.06 33.8247 102.472 34.2447 103.049 34.7238C103.595 35.1774 103.948 35.4251 104.108 35.467C104.305 35.5267 104.431 35.579 104.485 35.6237C104.615 35.7323 104.672 35.8834 104.655 36.0769C104.636 36.2563 104.566 36.4192 104.445 36.5656C104.101 36.9816 103.736 37.0299 103.351 36.7104C103.313 36.6785 103.266 36.6261 103.209 36.5532C103.159 36.4726 103.118 36.4195 103.088 36.3939C102.695 36.0681 102.099 35.6051 101.297 35.0048C100.488 34.3981 99.8916 33.935 99.5069 33.6156C99.1607 33.3281 99.1598 32.9764 99.5041 32.5604C99.7081 32.3139 99.9215 32.2051 100.144 32.2341C100.084 31.8203 100.166 31.4787 100.389 31.209C100.542 31.0242 100.739 30.8885 100.979 30.8021C101.136 30.7376 101.382 30.7146 101.718 30.733C102.045 30.7451 102.267 30.799 102.382 30.8948Z" fill="black"/>
<path d="M110.139 26.5898C111.013 27.5392 111.599 28.2362 111.899 28.6805C112.072 28.9426 112.023 29.1991 111.751 29.45C111.339 29.8297 110.966 29.7931 110.631 29.3403C110.426 29.856 110.125 30.2969 109.728 30.6631C109.346 31.0157 108.894 31.2557 108.373 31.383C107.751 31.5346 107.278 31.4337 106.953 31.0804C106.635 30.7344 106.572 30.1936 106.765 29.4578C106.941 28.7922 107.216 28.2865 107.591 27.9407L108.528 27.0761L108.285 26.8111C107.581 26.0315 106.998 25.8553 106.535 26.2825C105.954 26.8182 105.914 27.3584 106.415 27.903C106.585 28.087 106.566 28.274 106.361 28.4638C106.236 28.5791 106.053 28.646 105.811 28.6644C105.571 28.6687 105.393 28.6083 105.278 28.4831C104.899 28.071 104.734 27.5968 104.785 27.0606C104.835 26.5243 105.066 26.0664 105.477 25.6866C106.859 24.4118 108.413 24.7129 110.139 26.5898ZM109.391 28.0145C109.256 27.8673 109.078 27.8954 108.858 28.0989C107.939 28.9465 107.679 29.5874 108.079 30.0217C108.295 30.2572 108.606 30.1885 109.01 29.8156C109.26 29.585 109.431 29.2981 109.523 28.9548C109.645 28.5561 109.601 28.2427 109.391 28.0145Z" fill="black"/>
<path d="M114.276 15.3277C114.372 15.4683 114.38 15.632 114.302 15.8187C114.231 15.9999 114.126 16.1383 113.985 16.234C113.878 16.3073 113.729 16.3365 113.537 16.3217C113.417 16.1619 113.313 16.0811 113.227 16.0792C113.136 16.069 112.999 16.1258 112.817 16.2497C112.462 16.4919 112.509 17.1132 112.959 18.1135C113.225 18.6826 113.582 19.305 114.029 19.9806C114.07 19.9524 114.12 19.9186 114.177 19.8792C114.246 19.8202 114.297 19.7795 114.33 19.7569C114.677 19.5203 115.018 19.4878 115.352 19.6594L115.561 20.2069C115.46 20.3966 115.215 20.6238 114.827 20.8886C114.761 20.9336 114.71 20.9744 114.674 21.0108C114.835 21.3007 115.025 21.6069 115.244 21.9294L116.011 23.0584C116.309 23.4968 116.682 23.9025 117.129 24.2756C116.93 24.6772 116.756 24.9287 116.608 25.0301C116.409 25.1653 116.148 25.1193 115.825 24.8921C115.563 24.7199 115.35 24.5138 115.187 24.2739C115.086 24.1251 114.563 23.3198 113.618 21.8581C113.362 22.0688 113.242 22.1685 113.259 22.1572C113.119 22.253 112.964 22.292 112.794 22.2742C112.625 22.2565 112.49 22.1731 112.389 22.0243C112.215 21.7679 112.21 21.5292 112.374 21.3083C112.467 21.1964 112.671 21.0334 112.985 20.8194C112.953 20.7198 112.794 20.459 112.508 20.0372C111.929 19.1853 111.562 18.3521 111.407 17.5376C111.217 16.4571 111.494 15.6633 112.238 15.1564C112.609 14.9029 112.971 14.7772 113.323 14.7793C113.723 14.7975 114.04 14.9803 114.276 15.3277Z" fill="black"/>
<path d="M120.923 15.6033C121.052 15.8409 120.777 16.2057 120.1 16.6979C120.187 16.901 120.415 17.3457 120.786 18.032L121.257 18.9031C121.352 19.0791 121.518 19.3244 121.756 19.6389C122.003 19.9487 122.172 20.1872 122.262 20.3544C122.338 20.4952 122.337 20.6609 122.258 20.8515C122.174 21.0333 122.062 21.1623 121.921 21.2385C121.701 21.3576 121.415 21.2685 121.061 20.9711C120.79 20.7427 120.58 20.4921 120.433 20.2193L118.922 17.4213C118.484 17.5788 118.23 17.6655 118.159 17.6812C117.892 17.7347 117.723 17.6954 117.652 17.5634C117.633 17.5282 117.62 17.4839 117.614 17.4303C117.667 16.9809 117.834 16.68 118.115 16.5276C118.133 16.5181 118.159 16.5038 118.195 16.4847C118.234 16.4745 118.263 16.4646 118.281 16.455C118.465 16.355 118.437 16.0918 118.195 15.6654L117.675 14.702C117.57 14.6337 117.498 14.5644 117.46 14.4941C117.399 14.3797 117.41 14.2428 117.494 14.0833C117.583 13.9103 117.688 13.7905 117.812 13.7238C117.996 13.6237 118.22 13.6165 118.482 13.7019C118.739 13.7786 118.92 13.9137 119.024 14.1073C119.139 14.3185 119.217 14.5487 119.261 14.798C119.309 15.0337 119.397 15.2591 119.524 15.4744L119.553 15.5271C120.276 15.226 120.733 15.2514 120.923 15.6033Z" fill="black"/>
<path d="M130.096 15.9259C130.274 16.3932 130.095 16.879 129.56 17.3835C129.143 17.7783 128.664 18.0792 128.122 18.2863C126.683 18.8362 125.653 18.2935 125.029 16.6582C124.773 15.9854 124.652 15.1754 124.665 14.2281C124.682 13.0653 124.976 12.3751 125.546 12.1572C126.059 11.9609 126.698 11.9791 127.461 12.2121C128.233 12.4414 128.713 12.8037 128.902 13.299C129.137 13.9157 129.049 14.5117 128.636 15.0868C128.275 15.5995 127.758 15.9844 127.086 16.2415C126.955 16.2915 126.715 16.2924 126.365 16.2442C126.74 17.1177 127.171 17.4616 127.657 17.2759C128.068 17.1188 128.425 16.8484 128.728 16.4648C129.041 16.0777 129.253 15.8627 129.365 15.8198C129.767 15.6663 130.01 15.7017 130.096 15.9259ZM127.559 13.8606C127.47 13.627 127.316 13.4341 127.098 13.2821C126.885 13.1172 126.667 13.0776 126.443 13.1633C126.134 13.2811 125.948 13.5076 125.883 13.8429C125.832 14.1301 125.867 14.4325 125.988 14.7502C126.056 14.9278 126.171 15.0494 126.336 15.1151C126.5 15.1808 126.675 15.178 126.862 15.1066C127.544 14.8459 127.776 14.4306 127.559 13.8606Z" fill="black"/>
<path d="M137.304 9.82901C137.319 9.89734 137.333 10.0069 137.346 10.1577C137.206 10.4962 137.024 10.6904 136.799 10.7404C136.614 10.7817 136.424 10.7112 136.23 10.5291C136.113 10.0941 135.908 9.90919 135.615 9.97437C135.439 10.0135 135.328 10.525 135.28 11.5089C135.253 11.945 135.322 12.5292 135.484 13.2614C135.638 13.9545 135.765 14.3667 135.866 14.4979C135.985 14.666 136.052 14.7843 136.068 14.8526C136.104 15.0186 136.057 15.1726 135.924 15.3148C135.8 15.445 135.644 15.5307 135.459 15.572C134.932 15.6894 134.614 15.504 134.506 15.0158C134.495 14.967 134.49 14.8965 134.49 14.8043C134.499 14.7099 134.5 14.6432 134.491 14.6041C134.381 14.1063 134.193 13.3746 133.928 12.4092C133.66 11.4341 133.472 10.7024 133.364 10.2143C133.266 9.77499 133.481 9.49666 134.008 9.37934C134.32 9.30981 134.556 9.35475 134.714 9.51417C134.92 9.15069 135.194 8.93093 135.536 8.85488C135.77 8.80273 136.009 8.81622 136.252 8.89533C136.415 8.94084 136.624 9.07366 136.878 9.29379C137.129 9.50416 137.271 9.68257 137.304 9.82901Z" fill="black"/>
<path d="M146.102 12.2283C146.143 12.6965 145.98 13.1226 145.613 13.5067C145.208 13.9242 144.637 14.1658 143.9 14.2314C143.582 14.2698 143.233 14.2356 142.852 14.129C141.617 13.7872 140.987 13.4768 140.962 13.1979C140.923 12.7596 141.218 12.5126 141.845 12.4567C141.935 12.4487 142.03 12.4453 142.13 12.4464C142.187 12.7425 142.447 12.9603 142.911 13.0997C143.314 13.2245 143.693 13.256 144.049 13.1941C144.336 13.1485 144.471 13.0311 144.455 12.8418C144.452 12.8119 144.438 12.768 144.413 12.71C144.397 12.6511 144.389 12.6067 144.386 12.5768C144.382 12.537 144.186 12.4742 143.797 12.3883C143.357 12.297 143.111 12.2436 143.06 12.2281C141.864 11.6518 141.224 10.8856 141.139 9.92936C141.088 9.35163 141.205 8.80409 141.49 8.28674C141.811 7.71604 142.245 7.40631 142.793 7.35753C143.202 7.32117 143.679 7.4393 144.225 7.71193C144.781 7.98368 145.136 8.2985 145.288 8.65641C145.39 8.9083 145.449 9.11891 145.464 9.28825C145.48 9.46754 145.469 9.61917 145.429 9.74313C145.383 9.89787 145.336 10.0526 145.29 10.2073C145.112 10.3537 144.929 10.4353 144.739 10.4521C144.64 10.461 144.465 10.4163 144.215 10.3181C143.975 10.209 143.851 10.1096 143.843 10.0199C143.839 9.9801 143.887 9.84529 143.987 9.61551C144.046 9.47981 144.071 9.36714 144.063 9.27749C144.01 8.67984 143.749 8.40186 143.281 8.44354C143.002 8.46837 142.804 8.66673 142.686 9.03862C142.602 9.32728 142.573 9.63099 142.602 9.94973C142.637 10.3482 142.953 10.6815 143.549 10.9497C144.087 11.1327 144.631 11.3202 145.18 11.5122C145.771 11.7207 146.078 11.9594 146.102 12.2283Z" fill="black"/>
<path d="M162.437 12.2163C162.404 12.4034 162.314 12.6211 162.169 12.8695C161.808 13.4757 161.254 13.9056 160.509 14.1592C159.829 14.3839 159.12 14.4307 158.382 14.2996C157.171 14.0847 156.321 13.4616 155.833 12.4305C155.413 11.5332 155.315 10.4544 155.538 9.194C155.723 8.15022 156.058 7.19927 156.545 6.34118C157.094 5.36206 157.776 4.64001 158.589 4.17502C159.232 3.81183 159.844 3.6818 160.425 3.78491C161.262 3.93347 161.833 4.41054 162.137 5.21612C162.387 5.86986 162.432 6.64477 162.274 7.54085C162.202 7.94458 162.009 8.43335 161.695 9.00717C161.316 9.71185 160.974 10.0371 160.669 9.98292C160.324 9.92175 160.102 9.6588 160.001 9.19407C160.112 9.14262 160.27 9.05384 160.475 8.92775C160.71 8.74607 160.883 8.34013 160.995 7.70992C161.103 7.0994 161.13 6.57107 161.077 6.12493C160.994 5.44992 160.725 5.07221 160.272 4.99182C159.957 4.93589 159.577 5.07658 159.131 5.41389C158.792 5.66847 158.491 5.96537 158.227 6.3046C157.578 7.16428 157.128 8.29818 156.879 9.7063C156.517 11.7545 157.103 12.9149 158.639 13.1876C159.299 13.3046 159.854 13.2102 160.304 12.9042C160.491 12.7647 160.785 12.4562 161.184 11.9787C161.459 11.6313 161.714 11.4786 161.951 11.5206C162.108 11.5486 162.235 11.637 162.33 11.786C162.427 11.9251 162.463 12.0686 162.437 12.2163Z" fill="black"/>
<path d="M174.101 15.221C173.768 16.0573 173.275 16.6894 172.62 17.1173C171.867 17.6029 171.092 17.6864 170.293 17.3677C169.475 17.0416 168.969 16.5164 168.772 15.7921C168.588 15.1477 168.663 14.4027 169 13.5571C169.332 12.7208 169.855 12.0144 170.569 11.4378C171.403 10.7478 172.205 10.5565 172.976 10.8641C173.218 10.9604 173.477 11.1877 173.754 11.546C174.547 12.5836 174.662 13.8086 174.101 15.221ZM172.886 14.704C173.451 13.2823 173.39 12.4343 172.703 12.1601C172.211 11.9637 171.719 12.1174 171.228 12.6214C170.861 13.0026 170.563 13.4812 170.334 14.0573C169.843 15.2932 169.964 16.0575 170.697 16.3502C171.171 16.5392 171.626 16.4245 172.061 16.0061C172.393 15.6862 172.668 15.2522 172.886 14.704Z" fill="black"/>
<path d="M182.004 22.5114C181.756 22.628 181.538 22.6284 181.351 22.5124C181.207 22.4229 181.022 22.1902 180.795 21.8146L180.89 21.6615C181.006 21.4743 181.181 21.2005 181.415 20.84C181.658 20.4848 181.832 20.2221 181.938 20.052C183.063 18.2316 183.353 17.1528 182.809 16.8156C182.656 16.7207 182.409 16.7318 182.066 16.8488C181.01 17.2062 180.164 17.8995 179.528 18.9288C179.439 19.0734 179.33 19.3061 179.203 19.6269C179.088 19.9445 178.987 20.1756 178.897 20.3202C178.824 20.4393 178.708 20.5029 178.55 20.5109C178.393 20.519 178.25 20.4835 178.122 20.4044C177.612 20.0883 177.557 19.6069 177.957 18.9605L179.605 16.2937C179.647 16.2257 179.716 16.1331 179.812 16.0161C179.913 15.8905 179.985 15.7937 180.027 15.7256C180.09 15.6236 180.165 15.4642 180.252 15.2474C180.347 15.036 180.424 14.8835 180.482 14.7899C180.566 14.6538 180.721 14.5736 180.948 14.5494C181.188 14.5219 181.372 14.5477 181.499 14.6268C181.686 14.7427 181.812 14.9676 181.876 15.3015L181.522 15.7881C182.147 15.4812 182.689 15.4701 183.148 15.7546C183.445 15.939 183.697 16.2361 183.902 16.6458C184.107 17.0554 184.207 17.4353 184.203 17.7853C184.151 18.6479 183.8 19.6065 183.148 20.6613L182.004 22.5114Z" fill="black"/>
<path d="M190.318 28.9288C190.053 28.9986 189.838 28.9595 189.676 28.8117C189.55 28.6974 189.409 28.4351 189.255 28.0247L189.376 27.8912C189.523 27.7281 189.745 27.4904 190.041 27.1783C190.344 26.8728 190.563 26.646 190.697 26.4977C192.133 24.9107 192.614 23.9022 192.14 23.4721C192.006 23.3511 191.761 23.3171 191.402 23.3702C190.3 23.5308 189.342 24.0598 188.531 24.9571C188.417 25.0831 188.268 25.2924 188.084 25.5848C187.915 25.8766 187.773 26.0855 187.659 26.2116C187.565 26.3154 187.44 26.357 187.283 26.3364C187.126 26.3157 186.992 26.255 186.881 26.1542C186.437 25.751 186.47 25.2676 186.98 24.704L189.083 22.3792C189.136 22.3199 189.221 22.2413 189.336 22.1435C189.459 22.0383 189.547 21.956 189.6 21.8967C189.681 21.8077 189.783 21.6645 189.908 21.4671C190.04 21.2763 190.143 21.1402 190.217 21.0586C190.324 20.94 190.491 20.8892 190.719 20.9064C190.96 20.9228 191.136 20.9814 191.247 21.0823C191.41 21.2301 191.493 21.474 191.496 21.814L191.06 22.2287C191.729 22.0398 192.264 22.1268 192.664 22.4897C192.923 22.7249 193.117 23.0626 193.245 23.5027C193.372 23.9427 193.402 24.3345 193.334 24.6779C193.128 25.517 192.609 26.3964 191.777 27.3159L190.318 28.9288Z" fill="black"/>
<path d="M197.93 35.5208C197.536 35.8288 197.02 35.8009 196.381 35.4371C195.882 35.1546 195.454 34.7846 195.097 34.3272C194.151 33.1126 194.367 31.9663 195.745 30.8883C196.312 30.4448 197.05 30.09 197.959 29.824C199.074 29.4979 199.819 29.5754 200.194 30.0565C200.532 30.4902 200.702 31.1065 200.703 31.9052C200.71 32.7118 200.505 33.2783 200.088 33.6048C199.568 34.0114 198.973 34.1021 198.303 33.877C197.708 33.6825 197.189 33.3013 196.746 32.7334C196.66 32.623 196.589 32.3932 196.532 32.044C195.808 32.6607 195.606 33.1741 195.926 33.5843C196.196 33.9313 196.559 34.1934 197.014 34.3707C197.476 34.5558 197.743 34.6957 197.817 34.7904C198.081 35.1295 198.119 35.373 197.93 35.5208ZM199.158 32.485C199.355 32.331 199.494 32.1271 199.575 31.8733C199.67 31.6212 199.644 31.4005 199.496 31.2112C199.293 30.9509 199.022 30.8391 198.683 30.8758C198.394 30.9115 198.116 31.034 197.848 31.2435C197.698 31.3605 197.616 31.5073 197.601 31.6837C197.587 31.8602 197.641 32.0272 197.764 32.185C198.213 32.7607 198.677 32.8607 199.158 32.485Z" fill="black"/>
<path d="M203.464 43.5151C203.192 43.6631 202.759 43.6308 202.166 43.418C201.623 43.2349 201.227 43.0178 200.977 42.7665C200.732 42.5241 200.538 42.271 200.395 42.0072C200.019 41.3126 199.944 40.6481 200.169 40.0136C200.398 39.388 200.86 38.8867 201.554 38.5095C202.231 38.1419 203.084 37.9115 204.114 37.8185C205.349 37.7051 206.122 37.9341 206.431 38.5057C206.603 38.8222 206.687 39.2715 206.684 39.8537C206.669 40.4765 206.546 40.9015 206.317 41.1286C206.118 41.3279 205.869 41.5087 205.57 41.671C205.298 41.819 204.959 41.9289 204.554 42.0008C204.039 42.0989 203.724 42.0424 203.61 41.8313C203.529 41.6818 203.496 41.5173 203.513 41.3376C203.524 41.1269 203.6 40.9833 203.74 40.9069C203.749 40.9021 203.871 40.8868 204.108 40.8609C204.219 40.8571 204.473 40.7478 204.868 40.5329C205.193 40.3563 205.397 40.2285 205.479 40.1496C205.723 39.9488 205.793 39.7517 205.688 39.5583C205.455 39.1274 204.9 38.9962 204.025 39.1646C203.376 39.2895 202.77 39.5048 202.208 39.8103C201.268 40.3212 200.96 40.8756 201.283 41.4735C201.412 41.7109 201.683 41.9167 202.095 42.0907C202.476 42.248 202.816 42.3193 203.115 42.3047C203.473 42.2926 203.706 42.3877 203.816 42.5899C203.887 42.7218 203.877 42.8923 203.786 43.1013C203.703 43.3056 203.596 43.4435 203.464 43.5151Z" fill="black"/>
<path d="M209.762 48.5815C209.51 48.6796 209.183 48.3618 208.779 47.6281C208.567 47.6894 208.098 47.8617 207.371 48.1451L206.449 48.5047C206.262 48.5773 205.998 48.7125 205.657 48.9101C205.319 49.117 205.061 49.2549 204.884 49.324C204.735 49.3821 204.571 49.3602 204.392 49.2583C204.222 49.1527 204.108 49.0254 204.05 48.8763C203.96 48.6433 204.084 48.3694 204.423 48.0548C204.683 47.8137 204.958 47.6369 205.247 47.5243L208.21 46.3691C208.108 45.9149 208.054 45.6516 208.047 45.5791C208.028 45.3077 208.088 45.1447 208.228 45.0902C208.265 45.0757 208.31 45.0687 208.364 45.0692C208.803 45.1771 209.081 45.3802 209.197 45.6785C209.204 45.6971 209.215 45.7251 209.229 45.7623C209.234 45.8033 209.24 45.833 209.248 45.8517C209.324 46.0474 209.588 46.0516 210.041 45.8643L211.061 45.4665C211.142 45.3707 211.22 45.3082 211.294 45.2791C211.415 45.2319 211.55 45.26 211.697 45.3635C211.858 45.4727 211.963 45.5925 212.014 45.723C212.09 45.9187 212.069 46.1415 211.952 46.3912C211.844 46.6373 211.687 46.8004 211.482 46.8803C211.259 46.9675 211.02 47.0174 210.768 47.03C210.528 47.0483 210.294 47.1075 210.064 47.2076L210.009 47.2294C210.217 47.9855 210.134 48.4362 209.762 48.5815Z" fill="black"/>
<path d="M2.45242 177.591C2.13391 175.215 3.0098 172.376 4.76157 169.409" stroke="#0CB0EA" stroke-width="3" stroke-miterlimit="10"/>
<path d="M6.91138 166.251C13.2496 158.084 25.3209 149.79 37.2967 147.844" stroke="#0CB0EA" stroke-width="3" stroke-miterlimit="10"/>
<path d="M39.1919 147.605C42.1062 147.302 45.0046 147.397 47.7915 147.988" stroke="#0CB0EA" stroke-width="3" stroke-miterlimit="10"/>
<path d="M50.3874 148.514C50.3874 151.273 50.3715 154.24 50.6422 157.159" stroke="#0CB0EA" stroke-width="3" stroke-miterlimit="10"/>
<path d="M51.4065 162.04C52.9512 168.468 56.8529 174.13 66.6469 176.475" stroke="#0CB0EA" stroke-width="3" stroke-miterlimit="10"/>
<path d="M69.0835 176.969C71.5997 177.384 74.4662 177.623 77.699 177.623" stroke="#0CB0EA" stroke-width="3" stroke-miterlimit="10"/>
<path d="M78.3838 177.017C78.0653 174.641 78.9412 171.801 80.693 168.835" stroke="#0CB0EA" stroke-width="3" stroke-miterlimit="10"/>
<path d="M82.8428 165.692C89.181 157.526 101.252 149.232 113.228 147.286" stroke="#0CB0EA" stroke-width="3" stroke-miterlimit="10"/>
<path d="M115.123 147.031C118.038 146.728 120.936 146.823 123.723 147.413" stroke="#0CB0EA" stroke-width="3" stroke-miterlimit="10"/>
<path d="M126.319 147.94C126.319 150.699 126.303 153.666 126.574 156.585" stroke="#0CB0EA" stroke-width="3" stroke-miterlimit="10"/>
<path d="M127.338 161.466C128.883 167.894 132.784 173.556 142.578 175.901" stroke="#0CB0EA" stroke-width="3" stroke-miterlimit="10"/>
<path d="M145.015 176.395C147.531 176.81 150.398 177.049 153.63 177.049" stroke="#0CB0EA" stroke-width="3" stroke-miterlimit="10"/>
<path d="M153.838 175.885C153.519 173.508 154.395 170.669 156.147 167.702" stroke="#0CB0EA" stroke-width="3" stroke-miterlimit="10"/>
<path d="M158.297 164.544C164.635 156.377 176.706 148.083 188.682 146.137" stroke="#0CB0EA" stroke-width="3" stroke-miterlimit="10"/>
<path d="M190.577 145.898C193.491 145.595 196.39 145.691 199.177 146.281" stroke="#0CB0EA" stroke-width="3" stroke-miterlimit="10"/>
<path d="M201.773 146.791C201.773 149.551 201.757 152.517 202.027 155.436" stroke="#0CB0EA" stroke-width="3" stroke-miterlimit="10"/>
<path d="M202.792 160.333C204.336 166.761 208.238 172.424 218.032 174.768" stroke="#0CB0EA" stroke-width="3" stroke-miterlimit="10"/>
<path d="M220.469 175.247C222.985 175.661 225.852 175.901 229.085 175.901" stroke="#0CB0EA" stroke-width="3" stroke-miterlimit="10"/>
<path d="M229.753 176.443C229.435 174.066 230.311 171.227 232.062 168.261" stroke="#0CB0EA" stroke-width="3" stroke-miterlimit="10"/>
<path d="M234.228 165.118C240.567 156.952 252.638 148.658 264.614 146.712" stroke="#0CB0EA" stroke-width="3" stroke-miterlimit="10"/>
<path d="M266.493 146.456C269.407 146.153 272.305 146.249 275.092 146.839" stroke="#0CB0EA" stroke-width="3" stroke-miterlimit="10"/>
<path d="M277.704 147.366C277.704 150.125 277.688 153.092 277.959 156.011" stroke="#0CB0EA" stroke-width="3" stroke-miterlimit="10"/>
<path d="M278.723 160.907C280.268 167.335 284.17 172.998 293.964 175.342" stroke="#0CB0EA" stroke-width="3" stroke-miterlimit="10"/>
<path d="M296.384 175.821C298.9 176.236 301.767 176.475 305 176.475" stroke="#0CB0EA" stroke-width="3" stroke-miterlimit="10"/>
</g>
<defs>
<clipPath id="clip0_605_3429">
<rect width="305" height="180" fill="white"/>
</clipPath>
</defs>
</svg>
