<svg xmlns="http://www.w3.org/2000/svg" viewBox="0 0 300 300">
  <!-- Background Circle -->
  <circle cx="150" cy="150" r="140" fill="#f2f2f2" />
  
  <!-- Outer Ring -->
  <circle cx="150" cy="150" r="130" fill="none" stroke="#3498db" stroke-width="8" stroke-dasharray="30 10" />
  
  <!-- Inner Circle -->
  <circle cx="150" cy="150" r="100" fill="#ffffff" stroke="#2980b9" stroke-width="3" />
  
  <!-- Heart Rate Line -->
  <path d="M50,150 L90,150 L110,120 L130,180 L150,130 L170,160 L190,140 L210,150 L250,150" 
        fill="none" stroke="#e74c3c" stroke-width="6" stroke-linecap="round" stroke-linejoin="round" />
  
  <!-- Step Counter Icon -->
  <g transform="translate(120, 150)">
    <circle cx="0" cy="0" r="40" fill="#3498db" opacity="0.2" />
    <path d="M-15,-10 L0,10 L15,-15" fill="none" stroke="#3498db" stroke-width="6" stroke-linecap="round" stroke-linejoin="round" />
    <path d="M-15,-10 L0,10 L15,-15" fill="none" stroke="#3498db" stroke-width="6" stroke-linecap="round" stroke-linejoin="round" transform="translate(0, 20)" />
  </g>
  
  <!-- Small Decorative Circles -->
  <circle cx="75" cy="150" r="6" fill="#2ecc71" />
  <circle cx="225" cy="150" r="6" fill="#2ecc71" />
  
  <!-- Small Pulse Circles (animated effect) -->
  <circle cx="150" cy="90" r="5" fill="#3498db" />
  <circle cx="150" cy="210" r="5" fill="#3498db" />
  <circle cx="90" cy="150" r="5" fill="#3498db" />
  <circle cx="210" cy="150" r="5" fill="#3498db" />
</svg>